/* XPM */
static char *result[] = {
/* columns rows colors chars-per-pixel */
"64 64 4 1 ",
"  c #614324",
". c #785229",
"X c #A67646",
"o c #BD874E",
/* pixels */
"      ................              ................            ",
"ooooo ooooooooooooooooooooooooooooo oooooooooooooooooooooooooooo",
"ooooo.ooooooooooooooooooooooooooooo.oooooooooooooooooooooooooooo",
"ooooo.ooooooooooooooooooooooooooooo.oooooooooooooooooooooooooooo",
"ooooo.ooooooooooooooooooooooooooooo.oooooooooooooooooooooooooooo",
"................................................................",
"ooooooooooooooooooooooooooooo.ooooooooooooooooooooooooooooo.oooo",
"ooooooooooooooooooooooooooooo.ooooooooooooooooooooooooooooo.oooo",
"ooooooooooooooooooooooooooooo.ooooooooooooooooooooooooooooo.oooo",
"................................................................",
"XXXXXXXXXXXX.XXXXXXXXXXXXXXXXXXXXXXXXXXXXX.XXXXXXXXXXXXXXXXXXXXX",
"XXXXXXXXXXXX XXXXXXXXXXXXXXXXXXXXXXXXXXXXX XXXXXXXXXXXXXXXXXXXXX",
"XXXXXXXXXXXX XXXXXXXXXXXXXXXXXXXXXXXXXXXXX XXXXXXXXXXXXXXXXXXXXX",
"               ...                           ...                ",
"XXXXXXXXXXXXXXXXXXX XXXXXXXXXXXXXXXXXXXXXXXXXXXXX XXXXXXXXXXXXXX",
"XXXXXXXXXXXXXXXXXXX.XXXXXXXXXXXXXXXXXXXXXXXXXXXXX.XXXXXXXXXXXXXX",
"XXXXXXXXXXXXXXXXXXX.XXXXXXXXXXXXXXXXXXXXXXXXXXXXX.XXXXXXXXXXXXXX",
"................................................................",
"ooooooo.ooooooooooooooooooooooooooooo.oooooooooooooooooooooooooo",
"ooooooo ooooooooooooooooooooooooooooo oooooooooooooooooooooooooo",
"ooooooo ooooooooooooooooooooooooooooo oooooooooooooooooooooooooo",
"ooooooo ooooooooooooooooooooooooooooo oooooooooooooooooooooooooo",
"             ............                  ............         ",
"XXXXXXXXXXXXXXXXXXXXXXXXXXX XXXXXXXXXXXXXXXXXXXXXXXXXXXXX XXXXXX",
"XXXXXXXXXXXXXXXXXXXXXXXXXXX.XXXXXXXXXXXXXXXXXXXXXXXXXXXXX.XXXXXX",
"XXXXXXXXXXXXXXXXXXXXXXXXXXX.XXXXXXXXXXXXXXXXXXXXXXXXXXXXX.XXXXXX",
".................    ..........................    .............",
"oooooooooooooooooo.ooooooooooooooooooooooooooooo.ooooooooooooooo",
"oooooooooooooooooo.ooooooooooooooooooooooooooooo.ooooooooooooooo",
"oooooooooooooooooo.ooooooooooooooooooooooooooooo.ooooooooooooooo",
"................................................................",
"XXXXXXXXX.XXXXXXXXXXXXXXXXXXXXXXXXXXXXX.XXXXXXXXXXXXXXXXXXXXXXXX",
"XXXXXXXXX.XXXXXXXXXXXXXXXXXXXXXXXXXXXXX.XXXXXXXXXXXXXXXXXXXXXXXX",
"XXXXXXXXX XXXXXXXXXXXXXXXXXXXXXXXXXXXXX XXXXXXXXXXXXXXXXXXXXXXXX",
".......              ................              .............",
"oooooooooooooooooooo ooooooooooooooooooooooooooooo ooooooooooooo",
"oooooooooooooooooooo.ooooooooooooooooooooooooooooo.ooooooooooooo",
"oooooooooooooooooooo.ooooooooooooooooooooooooooooo.ooooooooooooo",
"oooooooooooooooooooo.ooooooooooooooooooooooooooooo.ooooooooooooo",
"................................................................",
"oooooooooooooo.ooooooooooooooooooooooooooooo.ooooooooooooooooooo",
"oooooooooooooo.ooooooooooooooooooooooooooooo.ooooooooooooooooooo",
"oooooooooooooo.ooooooooooooooooooooooooooooo.ooooooooooooooooooo",
"................................................................",
"XXXXXXXXXXXXXXXXXXXXXXXXXXX.XXXXXXXXXXXXXXXXXXXXXXXXXXXXX.XXXXXX",
"XXXXXXXXXXXXXXXXXXXXXXXXXXX XXXXXXXXXXXXXXXXXXXXXXXXXXXXX XXXXXX",
"XXXXXXXXXXXXXXXXXXXXXXXXXXX XXXXXXXXXXXXXXXXXXXXXXXXXXXXX XXXXXX",
"...                           ...                             ..",
"XXXX XXXXXXXXXXXXXXXXXXXXXXXXXXXXX XXXXXXXXXXXXXXXXXXXXXXXXXXXXX",
"XXXX.XXXXXXXXXXXXXXXXXXXXXXXXXXXXX.XXXXXXXXXXXXXXXXXXXXXXXXXXXXX",
"XXXX.XXXXXXXXXXXXXXXXXXXXXXXXXXXXX.XXXXXXXXXXXXXXXXXXXXXXXXXXXXX",
"................................................................",
"oooooooooooooooooooooo.ooooooooooooooooooooooooooooo.ooooooooooo",
"oooooooooooooooooooooo ooooooooooooooooooooooooooooo ooooooooooo",
"oooooooooooooooooooooo ooooooooooooooooooooooooooooo ooooooooooo",
"oooooooooooooooooooooo ooooooooooooooooooooooooooooo ooooooooooo",
"..........                  ............                  ......",
"XXXXXXXXXXXX XXXXXXXXXXXXXXXXXXXXXXXXXXXXX XXXXXXXXXXXXXXXXXXXXX",
"XXXXXXXXXXXX.XXXXXXXXXXXXXXXXXXXXXXXXXXXXX.XXXXXXXXXXXXXXXXXXXXX",
"XXXXXXXXXXXX.XXXXXXXXXXXXXXXXXXXXXXXXXXXXX.XXXXXXXXXXXXXXXXXXXXX",
"..    ..........................    ............................",
"ooo.ooooooooooooooooooooooooooooo.oooooooooooooooooooooooooooooo",
"ooo.ooooooooooooooooooooooooooooo.oooooooooooooooooooooooooooooo",
"ooo.ooooooooooooooooooooooooooooo.oooooooooooooooooooooooooooooo"
};
