/* XPM */
static char *result[] = {
/* columns rows colors chars-per-pixel */
"64 64 67 1 ",
"  c #240867",
". c #2A0C67",
"X c #2B0768",
"o c #260969",
"O c #2A0B6B",
"+ c #2C106C",
"@ c #2C0E72",
"# c #2E1174",
"$ c #2F1179",
"% c #301375",
"& c #32147C",
"* c #341682",
"= c #361885",
"- c #381A86",
"; c #371989",
": c #3A1C8B",
"> c #3E1E91",
", c #3D208F",
"< c #3F2092",
"1 c #401F94",
"2 c #4D398D",
"3 c #412195",
"4 c #43229B",
"5 c #513B92",
"6 c #553E9E",
"7 c #4625A1",
"8 c #4926A5",
"9 c #4B29A7",
"0 c #4A26AB",
"q c #4D29AD",
"w c #573FA1",
"e c #4F2AB0",
"r c #522DB4",
"t c #572FB9",
"y c #582FBB",
"u c #5530B7",
"i c #5632BA",
"p c #5A33BD",
"a c #57409F",
"s c #5941A4",
"d c #5D44AB",
"f c #5E44B1",
"g c #6046AF",
"h c #6247B3",
"j c #6349B5",
"k c #6243BE",
"l c #654ABA",
"z c #694CBE",
"x c #5D36C1",
"c c #5D38C2",
"v c #613CC5",
"b c #633FC9",
"n c #6341C3",
"m c #6748C2",
"M c #6B4EC3",
"N c #6542CA",
"B c #6946CD",
"V c #6C4ACE",
"C c #6E50C6",
"Z c #6F51CA",
"A c #7253CD",
"S c #6D4CD1",
"D c #704ED1",
"F c #7656D4",
"G c #7758D6",
"H c #7858D6",
"J c None",
/* pixels */
"JJJJJJJJJJJJJJJJJJJJJJJJJJJJJJJJJJJJJJJJJJJJJJJJJJJJJJJJJJJJJJJJ",
"JJJJJJJJJJJJJJJJJJJJJJJJJJJJJJJJJJJJJJJJJJJJJJJJJJJJJJJJJJJJJJJJ",
"JJJJJJJJJJJJJJJJJJJJJJJJJJJJJJJJJJJJJJJJJJJJJJJJJJJJJJJJJJJJJJJJ",
"JJJJJJJJJJJJJJJJJJJJJJJJJJJJJJJJJJJJJJJJJJJJJJJJJJJJJJJJJJJJJJJJ",
"JJJJJJJJJJJJJJJJJJJJJJJJJJJJJJJJJJJJJJJJJJJJJJJJJJJJJJJJJJJJJJJJ",
"JJJJJJJJJJJJJJJJJJJJJJJJJJJJJJJJJJJJJJJJJJJJJJJJJJJJJJJJJJJJJJJJ",
"JJJJJJJJJJJJJJJJJJJJJJJJJJJJJJJJJJJJJJJJJJJJJJJJJJJJJJJJJJJJJJJJ",
"JJJJJJJJJJJJJJJJJJJJJJJJJJJJJJJJJJJJJJJJJJJJJJJJJJJJJJJJJJJJJJJJ",
"JJJJJJJJJJJJJJJJJJJJJJJJJJJJJJJJJJJJJJJJJJJJJJJJJJJJJJJJJJJJJJJJ",
"JJJJJJJJJJJJJJJJJJJJJJJJJJJJJJJJJJJJJJJJJJJJJJJJJJJJJJJJJJJJJJJJ",
"JJJJJJJJJJJJJJJJJJJJJJJJJJJJJJJJJJJJJJJJJJJJJJJJJJJJJJJJJJJJJJJJ",
"JJJJJJJJJJJJJJJJJJJJJJJJJJJJJJJJJJJJJJJJJJJJJJJJJJJJJJJJJJJJJJJJ",
"JJJJJJJJJJJJJJJJJJJJJJJJJJJJ+O+oOO.JJJJJJJJJJJJJJJJJJJJJJJJJJJJJ",
"JJJJJJJJJJJJJJJJJJJJJJJJ++OO###+##@OO++JJJJJJJJJJJJJJJJJJJJJJJJJ",
"JJJJJJJJJJJJJJJJJJJJJJOO@O+##$&&&%#+@OO++JJJJJJJJJJJJJJJJJJJJJJJ",
"JJJJJJJJJJJJJJJJJJJJJ+oO#O#*;:::-,:-####oOOJJJJJJJJJJJJJJJJJJJJJ",
"JJJJJJJJJJJJJJJJJJJOOOO@&=-:11>4444:,&$#OOO+JJJJJJJJJJJJJJJJJJJJ",
"JJJJJJJJJJJJJJJJJJOO+O@=::344qeerrq444<&@OOO+JJJJJJJJJJJJJJJJJJJ",
"JJJJJJJJJJJJJJJJJOO@@*-:14qqripppuuqqq74:&@OO#JJJJJJJJJJJJJJJJJJ",
"JJJJJJJJJJJJJJJJOoO@&=:4q0rrxbnBBNcpire84:&#Oo+JJJJJJJJJJJJJJJJJ",
"JJJJJJJJJJJJJJJJoO@**10rreiVBBBVVVSNxirq84,&OOOJJJJJJJJJJJJJJJJJ",
"JJJJJJJJJJJJJJJOo$==10eryvVDVDFFFSVVSbpte04:*#OOJJJJJJJJJJJJJJJJ",
"JJJJJJJJJJJJJJOO@*;>8erpBVVAAMhzAGGFDDBbie93,&O.+JJJJJJJJJJJJJJJ",
"JJJJJJJJJJJJJJOO&*>8ervNDFzgzldgddCGHHFFNie9<:&O+JJJJJJJJJJJJJJJ",
"JJJJJJJJJJJJJ%oO*;10rvbVAzwwjzhhdhddCAGHDbr043=#O+JJJJJJJJJJJJJJ",
"JJJJJJJJJJJJJ+ O=>70pNDFgswgAFFFClfddgjFFSx0q1:&OOJJJJJJJJJJJJJJ",
"JJJJJJJJJJJJJOX$;10rvBFMwwlAFFFFFAZzzddgAFbr03<*#oJJJJJJJJJJJJJJ",
"JJJJJJJJJJJJJo@*180ybFFhglAFFHFFFFGGGCjddHBpr8>:#oJJJJJJJJJJJJJJ",
"JJJJJJJJJJJJ.O$*100xBHlwlDFFFCzMFFFFFGFhdMFxr8:,&.OJJJJJJJJJJJJJ",
"JJJJJJJJJJJJOO$;q00bFDdhAFFzgs65adMFGFGZdgFbpq3,*OOJJJJJJJJJJJJJ",
"JJJJJJJJJJJJOo&:90ebFzwMFg2gsllllsdCFFFFjsFbye33*OOJJJJJJJJJJJJJ",
"JJJJJJJJJJJJoO*>9erbZdlFFgszzFFAZCfsCGGFjdHNyr8<-OOJJJJJJJJJJJJJ",
"JJJJJJJJJJJJoO&>9epbmsMFFddAGAsdGGAsCGFFhdGVie8<:OOJJJJJJJJJJJJJ",
"JJJJJJJJJJJJo@*;8epNnsAAZwhFFAwwGAzsCFGFzdGBxr4<-OOJJJJJJJJJJJJJ",
"JJJJJJJJJJJJoO*;8rvbksCAFsAFFA6wjdssZGFFdjFbie<<*OOJJJJJJJJJJJJJ",
"JJJJJJJJJJJJOo%-4ribnsCAVdHFFA6wssdCFFFFsMDpi0<3&O+JJJJJJJJJJJJJ",
"JJJJJJJJJJJJJo#;1qibNsCMjsGFGFMCCCAFFFGlsAVpr83:#.JJJJJJJJJJJJJJ",
"JJJJJJJJJJJJJo@;>8rvbfAFdszFGGGFFFFFFGGddFbie4>=@oJJJJJJJJJJJJJJ",
"JJJJJJJJJJJJJX#&;1rtvNFF5sdgAGFGFFFGGGladSiu0<:*OOJJJJJJJJJJJJJJ",
"JJJJJJJJJJJJJ+O$=18ripBFGsssdCZFGFFGCjsdBxte7<;%XOJJJJJJJJJJJJJJ",
"JJJJJJJJJJJJJJO#*=4erpvBDFFdshdhCzlffddkbir94;*@OJJJJJJJJJJJJJJJ",
"JJJJJJJJJJJJJJoO$=:8rrpbBDDVAls6saaljlnpir84:=%OoJJJJJJJJJJJJJJJ",
"JJJJJJJJJJJJJJJOO%;18erpvNDBVFVzhhCMVbxieq7>=&OoJJJJJJJJJJJJJJJJ",
"JJJJJJJJJJJJJJJJX@&=18rrvpvNBVSDSVVcxieee<>;&@O.JJJJJJJJJJJJJJJJ",
"JJJJJJJJJJJJJJJJ+O#*->89riippcvcpcpirqq8<<;$@X.JJJJJJJJJJJJJJJJJ",
"JJJJJJJJJJJJJJJJJoO#**;37ruripppppuqe97<>=$ooOJJJJJJJJJJJJJJJJJJ",
"JJJJJJJJJJJJJJJJJJOO@*==:38qeeeerqq97<<:*@OOOJJJJJJJJJJJJJJJJJJJ",
"JJJJJJJJJJJJJJJJJJJOo@%=-:3344444443<:*$OOooJJJJJJJJJJJJJJJJJJJJ",
"JJJJJJJJJJJJJJJJJJJJOOo#@$=:>>>31>:=&@@OOO.JJJJJJJJJJJJJJJJJJJJJ",
"JJJJJJJJJJJJJJJJJJJJJoO+OO@*=*;*==%@XOOO+JJJJJJJJJJJJJJJJJJJJJJJ",
"JJJJJJJJJJJJJJJJJJJJJJJ+OO@@X@O#@XXooO+JJJJJJJJJJJJJJJJJJJJJJJJJ",
"JJJJJJJJJJJJJJJJJJJJJJJJJJOOOOOOOOOOJJJJJJJJJJJJJJJJJJJJJJJJJJJJ",
"JJJJJJJJJJJJJJJJJJJJJJJJJJJJJJJJJJJJJJJJJJJJJJJJJJJJJJJJJJJJJJJJ",
"JJJJJJJJJJJJJJJJJJJJJJJJJJJJJJJJJJJJJJJJJJJJJJJJJJJJJJJJJJJJJJJJ",
"JJJJJJJJJJJJJJJJJJJJJJJJJJJJJJJJJJJJJJJJJJJJJJJJJJJJJJJJJJJJJJJJ",
"JJJJJJJJJJJJJJJJJJJJJJJJJJJJJJJJJJJJJJJJJJJJJJJJJJJJJJJJJJJJJJJJ",
"JJJJJJJJJJJJJJJJJJJJJJJJJJJJJJJJJJJJJJJJJJJJJJJJJJJJJJJJJJJJJJJJ",
"JJJJJJJJJJJJJJJJJJJJJJJJJJJJJJJJJJJJJJJJJJJJJJJJJJJJJJJJJJJJJJJJ",
"JJJJJJJJJJJJJJJJJJJJJJJJJJJJJJJJJJJJJJJJJJJJJJJJJJJJJJJJJJJJJJJJ",
"JJJJJJJJJJJJJJJJJJJJJJJJJJJJJJJJJJJJJJJJJJJJJJJJJJJJJJJJJJJJJJJJ",
"JJJJJJJJJJJJJJJJJJJJJJJJJJJJJJJJJJJJJJJJJJJJJJJJJJJJJJJJJJJJJJJJ",
"JJJJJJJJJJJJJJJJJJJJJJJJJJJJJJJJJJJJJJJJJJJJJJJJJJJJJJJJJJJJJJJJ",
"JJJJJJJJJJJJJJJJJJJJJJJJJJJJJJJJJJJJJJJJJJJJJJJJJJJJJJJJJJJJJJJJ",
"JJJJJJJJJJJJJJJJJJJJJJJJJJJJJJJJJJJJJJJJJJJJJJJJJJJJJJJJJJJJJJJJ"
};
