/* XPM */
static char *result[] = {
/* columns rows colors chars-per-pixel */
"64 64 3 1 ",
"  c #5C4935",
". c #806F5C",
"X c #B09980",
/* pixels */
"                                                                ",
"     XXX......     X...........X      XX........     X.......   ",
"   XXXX.......X   X.............X    XX.........X   X.........  ",
"  XXX..........X  ......  .......X XX............X  ......  ..  ",
" X. ....... ..XX  ....XX.........X .. ....... ..XX  ....XX..... ",
" X....... .....X  ... ...........X ........ .....X  ... ....... ",
" ..............X  ............ ..X ..............X  ........... ",
" ..............X  ...............  ..............X  ........... ",
" ..............X  ...............  ..............X  ........... ",
" .. ...........   ...............  .. ...........   ........... ",
" ..... ........  ........  ....... ..... ........  ........  .. ",
" .X... ........   X............... .X... ........   X.......... ",
" ..............     .............X ..............     ........X ",
" .............X    ..............X .............X    .........X ",
" ...........XX     X... ...... ..  ...........XX     X... ....X ",
" XX........X  XX.X  X............  XX........X  XX.X  X......XX ",
"    XXX..    X.....  X.........X      XXX..    X.....  X....XX  ",
"            X.......X  ....   X               X.......X  ..XX   ",
"          X...........       XXXX.          X...........       X",
".....    XX..... .....XX   XX..........    XX..... .....XX   XX.",
"......  XX.............X XX.............  XX.............X XX...",
"......  ................  X...X ........  ................  X...",
".X....  ....X ........... X........X....  ....X ........... X...",
". . ..  ... ..... ....... X........ . ..  ... ..... ....... X...",
"....X.. ........ ..X.....  ...........X.. ........ ..X.....  ...",
"....X.. ............X....  ...........X.. ............X....  ...",
"....... .................  ...X.......... .................  ...",
"....... .................  ...X............................  ...",
"... ... .... ........ ...  .......... ... .... ........ ... X...",
".. ...X ......X .... ...   ......... ...X ......X .... .... X...",
"......X ...............    .............X .................  XX.",
".....X  ..............     X...........X  ................X   XX",
" XXXX     XXXX......          XXX  XXXX     XXXX.........X      ",
"                                                 X.....X        ",
"    ....... ..X       XXXXXX           XXXX..            XXX    ",
"  ....... .....X    XXX....XXXX      XXX... ...         ....X   ",
" ..............X  .XX.........XX.   XXX..........    .......XX  ",
" ..............X  ...............  XX............X   ........X  ",
" ..............X  ...............  ..............X  ..........X ",
" .. ...........   ...............  .. ...........   ..........X ",
" ..... ........  ........  ....... ..... ........  ........  .X ",
" .X... ........   X............... .X... ........   X.........X ",
" ..............     .............X ..............     ......... ",
" .............X    ..............X .............X    .......... ",
" ...........XX     X... ...... ..  ...........XX     X... ..... ",
" XX........X  XX.X  X............  XX........X  XX.X  X.......  ",
"    XXX..    X.....  X.........X      XXX..    X.....  X.....   ",
"            X.......X  ....   X               X.......X  ....   ",
"          X...........       XXXX.          X...........       X",
".....    XX..... .....XX   XX..........    XX..... .....XX   XX.",
"......  XX.............X XX.............  XX.............X XX...",
"......  ................  X...X ........  ................  X...",
".X....  ....X ........... X........X....  ....X ........... X...",
". . ..  ... ..... ....... X........ . ..  ... ..... ....... X...",
"....X.. ........ ..X.....  ...........X.. ........ ..X.....  ...",
"....X.. ............X....  ...........X.. ............X....  ...",
"....... .................  ...X.......... .................  ...",
"....... .................  ...X............................  ...",
"... ... .... ........ ...  .......... ... .... ........ ...  ...",
".. ...X ......X .... ....  ......... ...X ......X .... ....  ...",
"......X .................  .............X .................  X..",
".....X  ................X  X...........X  ................X  XX.",
" XXXX     XXXX.........X      XXX  XXXX     XXXX.........X      ",
"               X.....XX                          X.....XX       "
};
