/* XPM */
static char *result[] = {
/* columns rows colors chars-per-pixel */
"64 64 77 1 ",
"  c black",
". c #010001",
"X c #010101",
"o c #020102",
"O c #020202",
"+ c #030203",
"@ c gray1",
"# c #060605",
"$ c #060506",
"% c #070507",
"& c #060606",
"* c #070606",
"= c #080608",
"- c #090609",
"; c #090709",
": c #090908",
"> c #0B080B",
", c #0E0B0E",
"< c #0D0D0C",
"1 c #0E0D0D",
"2 c #0E0E0D",
"3 c #0F0C0F",
"4 c #0F0F0E",
"5 c #100F0E",
"6 c #110E11",
"7 c #120E12",
"8 c #130F13",
"9 c #111110",
"0 c #121111",
"q c #131211",
"w c #141014",
"e c #161116",
"r c #171317",
"t c #161514",
"y c #171616",
"u c #1B151B",
"i c #1A1918",
"p c #1D1B1B",
"a c #1F191F",
"s c #1F1E1C",
"d c #201F1E",
"f c #252422",
"g c #282725",
"h c #292726",
"j c #2F2E2D",
"k c #333230",
"l c #353331",
"z c #383733",
"x c #383634",
"c c #403E3B",
"v c #42403E",
"b c #454340",
"n c #454341",
"m c #474542",
"M c #494744",
"N c #504E49",
"B c #52504D",
"V c #575450",
"C c #595754",
"Z c #5B5955",
"A c #5E5C59",
"S c #63605B",
"D c #63605C",
"F c #666460",
"G c #696661",
"H c #6E6D6A",
"J c #716E69",
"K c #726F69",
"L c #75726E",
"P c #8C7249",
"I c #827F79",
"U c #87847F",
"Y c #2C4C9E",
"T c #96928B",
"R c #9E9C98",
"E c #ADA89F",
"W c None",
/* pixels */
"WWWWWWWWWWWWWWWWWWWWWWWWWWWWWWWWWWWWWWWWWWWWWWWWWWWWWWWWWWWWWWWW",
"WWWWWWWWWWWWWWWWWWWWWWWWWWWGHHHHHHHRWWWWWWWWWWWWWWWWWWWWWWWWWWWW",
"WWWWWWWWWWWWWWWWWWWWWWWWWGGGGGGITTRRRRWWWWWWWWWWWWWWWWWWWWWWWWWW",
"WWWWWWWWWWWWWWWWWWWWWWWTGGGGGITTTTTTRRTTWWWWWWWWWWWWWWWWWWWWWWWW",
"WWWWWWWWWWWWWWWWWWWWWTGGTITTILUjUULUTRRRRRWWWWWWWWWWWWWWWWWWWWWW",
"WWWWWWWWWWWWWWWWWWWGGGGZTKKTTjTTTTTUTTRRRRTTWWWWWWWWWWWWWWWWWWWW",
"WWWWWWWWWWWWWWWWWWGGGGBCKlTTgTT TlISKTTTRRRRGWWWWWWWWWWWWWWWWWWW",
"WWWWWWWWWWWWWWWWGGGGTIFsKq5         TTITUUTRGGGWWWWWWWWWWWWWWWWW",
"WWWWWWWWWWWWWWGGGGGIUUjqq             KKTIUUTTGGGWWWWWWWWWWWWWWW",
"WWWWWWWWWWWWGGGGTTIITlqq               TIJTjUTITGGTWWWWWWWWWWWWW",
"WWWWWWWWWWWGGGTTTLFlTT                   gITUTTTTGGTWWWWWWWWWWWW",
"WWWWWWWWWWTGTTTLFUgT                        KgIIUUGGGWWWWWWWWWWW",
"WWWWWWWWRGGGTTLDVlq                          IlTTUUGGGGWWWWWWWWW",
"WWWWWWWHHGMTTTGp2                             1KKIUUGGGRWWWWWWWW",
"WWWRRHRHGMTUTTl            > a-@@$              TTTUTGGHHUURWWWW",
"WWWGGGGTTTUUTI           r=X           %         KITTTTTEUURWWWW",
"WWWGGAGTTTTTI         ua>                         ITTTTTTEERWWWW",
"WWWGUATTTTTTK        O+                           TTUUTTTUERRWWW",
"WWWGATTPTTTTh                                     TIUUTPTUTRRWWW",
"WWWGTTTPTUUTq                ++                   lTUTTPTTTRRWWW",
"WWWGUTTnTTUTq                           a         lTTTTxTTUTWWWW",
"WWWTTTxnnTTTI                                     TTTTxxxTTTWWWW",
"WWWRTxxYnnTlK         >                         > TUUnxYxxTTWWWW",
"WWWRRxYYYnTqK        a                          >rTUTnYYYxTTWWWW",
"WWWWWxYYYnTqT       ar                           =lUTnYYYxWWWWWW",
"WWWWWxxYxnTU<       @                       .     KUTnnYxxWWWWWW",
"WWWWWWxxxTTU< @    ua                @a           KTTTnnxWWWWWWW",
"WWWWWWWxWTTZq O    @          @u      a           ITTTWnWWWWWWWW",
"WWWWWWWWWTIbK @    X         a         a          TTTTWWWWWWWWWW",
"WWWWWWWWWTKtV @    @                   aa         TTTTWWWWWWWWWW",
"WWWWWWWWWTl<q a   a      a              a         TITTWWWWWWWWWW",
"WWWWWWWWWTq<             a       aaa    aa        TTTTWWWWWWWWWW",
"WWWWWWWWWTT                   >aaa aa    a    %   lTLTWWWWWWWWWW",
"WWWWWWWWWTI             u    >>     aa   aa   u   TlTTWWWWWWWWWW",
"WWWWWWWWWlKK      a     a    -       aa   a        lTTWWWWWWWWWW",
"WWWWWWWWWq9#l     >     a   aa        a   u   a   IUUTWWWWWWWWWW",
"WWWWWWWWWTTqX     a    a    a         u   r   @   IKTRWWWWWWWWWW",
"WWWWWWWWWTTGGr    @    a        >     w    @      qITRWWWWWWWWWW",
"WWWWWWWWWTTGGu    a    a              =    X      XlTRWWWWWWWWWW",
"WWWWWWWWWTTTI,    u    a              +           lTTRWWWWWWWWWW",
"WWWWWWWWWTTTK=    6    a    a         +           TTTRWWWWWWWWWW",
"WWWWWWWWWTUTl+    7    r    >.        O           TUTRWWWWWWWWWW",
"WWWWWWWWWTUUqr    .    3     ua   ;   X           <UURWWWWWWWWWW",
"WWWWWWWWWRTTT          r3     aaar    o       O   fTUTWWWWWWWWWW",
"WWWWWWWWWRTTI           r            @        r   ZTTTWWWWWWWWWW",
"WWWWWWWWWRTlKa           r                    a   GTTTWWWWWWWWWW",
"WWWWWWWWWRTqT            Xr        aa         a   GITTWWWWWWWWWW",
"WWWWWWWWWRTTq @           @au     aa              fTTTWWWWWWWWWW",
"WWWWWWWWWRTUq @              aaaaau               fTTTWWWWWWWWWW",
"WWWWWWWWWRTTT O                              r    GUUTWWWWWWWWWW",
"WWWWWWWWWTTIK ea                       @O    r    GUTTWWWWWWWWWW",
"WWWWWWWWWTLCK  a                      >a          GGTTWWWWWWWWWW",
"WWWWWWWWWTTlq  au      .              a     w     dGTTWWWWWWWWWW",
"WWWWWWWWWTlqG   +        +>-ua             O      GGTTWWWWWWWWWW",
"WWWWWWWWWTGG    +@           aaaau        @       zmLTWWWWWWWWWW",
"WWWWWWWWWTG                             uu        fATTWWWWWWWWWW",
"WWWWWRRRTTZN                          aaa         &fZIRRRRWWWWWW",
"WWWWWRRRTlqTT                       -a>            0fTTTTTWWWWWW",
"WWWWWRTRUUTl*         r@ @       aaa                yUTTTTWWWWWW",
"WWWWWRRRTUGGG8            >aaa au                  kvTTTTTWWWWWW",
"WWWWWRRTRGGGG r                              =r   4cvGTUTTWWWWWW",
"WWWWWRRRRTTGf     u                         a     MMMMGAGTWWWWWW",
"WWWWWRRRRTGGG     aa                    a>>;      0:iMvUTTWWWWWW",
"WWWWWRRGGGTTT       @a                 ua         MMMMMGTTWWWWWW"
};
