/* XPM */
static char *result[] = {
/* columns rows colors chars-per-pixel */
"64 64 12 1 ",
"  c black",
". c gray5",
"X c gray10",
"o c gray21",
"O c #2A377A",
"+ c gray28",
"@ c #9E0000",
"# c #D50000",
"$ c #FA0000",
"% c #3F51B5",
"& c gray62",
"* c None",
/* pixels */
"****************************************************************",
"****************************************************************",
"************************.........*******************************",
"************************.........*******************************",
"************************..   .....******************************",
"************************..   .....******************************",
"************************..    .....*****************************",
"**************************$$ $.....*****************************",
"**************************      ...*****************************",
"**************************      ..******************************",
"**************************      ..******************************",
"**************************      .*******************************",
"***********************      ....*******************************",
"**********************  OOOO .    ******************************",
"*********************  OOOOO .     *****************************",
"********************* OOO@OO    %#  ****************************",
"********************* OO@O@O    #%#  ***************************",
"********************  OOO@OO  %%%#%%  **************************",
"******************** @OOOOOO %%%%%%%% **************************",
"******************** O@OOOOO %#%%%%#% **************************",
"*******************  @OOO@OO%#%#%%#%#  *************************",
"******************* OOOO@O%%%%#%%%%#%% *************************",
"******************* OOOOO@%%%%%%%O%%%%  ************************",
"******************* O@OOOO%#%%%%OO%%%%%  ***********************",
"******************* @O@OOO#%#%%%OO%%%#%% ***********************",
"******************* O@OO%%%#%%OOOO%%#%#% ***********************",
"******************* OOOO%%%%%%OOO%#%%#%% ***********************",
"******************* OOO@%%#%%%OOO#%#%%%% ***********************",
"******************* OO@O%#%#%%OOO%#%%%%% ***********************",
"*******************   O@%%#%%%  %%%%%%%% ***********************",
"******************* .. %%%%%%%   %%%%%%  ***********************",
"******************* ..  %%%%#%%%      % ************************",
"*******************    X %%#%#%%%% ...        ******************",
"********************   XX %%#%%%%% ... &&&&&&    ***************",
"********************** XXX         ... &&&&&&&&&&   ************",
"********************** XXXX ooooooo       &&&&&&&&&   **********",
"********************** XXXX oooooooo  ***      &&&&&&   ********",
"********************** XXXX ooooooooo ********     &&&&  *******",
"********************** XXXX ooooooooo ************       *******",
"********************** XXXX ooooooooo **************************",
"********************** XXXX  oooooooo **************************",
"********************** XXXXX oooooooo **************************",
"********************** XXXXX oooooooo **************************",
"********************** XXXXX oooooooo  *************************",
"********************** XXXXX ooooooooo *************************",
"********************** XXXXXX oooooooo *************************",
"********************** XXXXXX oooooooo  ************************",
"********************** XXXXXX ooooooooo ************************",
"********************** XXXXXX  oooooooo ************************",
"********************** XXXXXXX oooooooo  ***********************",
"********************** XXXXXXX ooooooooo ***********************",
"********************** XXXXXXX ooooooooo ***********************",
"********************** XXXXXXX ooooooooo ***********************",
"********************** XXXXXX    ooooooo ***********************",
"**********************  XXXXX ** ooooooo ***********************",
"*********************** XXXXX ** ooooooo ***********************",
"***********************  XXXX **  ooooo  ***********************",
"************************     ****  ooo  ************************",
"************************&&&&******     *************************",
"***********************&&&&&*******&&&**************************",
"***********************+++++*******+++**************************",
"***********************+++++*******+++**************************",
"****************************************************************",
"****************************************************************"
};
