/* XPM */
static char *result[] = {
/* columns rows colors chars-per-pixel */
"64 64 12 1 ",
"  c black",
". c gray5",
"X c gray10",
"o c gray21",
"O c #2A377A",
"+ c gray28",
"@ c #9E0000",
"# c #D50000",
"$ c #FA0000",
"% c #3F51B5",
"& c gray62",
"* c None",
/* pixels */
"****************************************************************",
"****************************************************************",
"*******************************.........************************",
"*******************************.........************************",
"******************************.....   ..************************",
"******************************.....   ..************************",
"*****************************.....    ..************************",
"*****************************.....$ $$**************************",
"*****************************...      **************************",
"******************************..      **************************",
"******************************..      **************************",
"*******************************.      **************************",
"*******************************....      ***********************",
"******************************    . %%%%  **********************",
"*****************************     . %%%%%  *********************",
"****************************  @O    %%#%%% *********************",
"***************************  @O@    %#%#%% *********************",
"**************************  OO@OOO  %%#%%%  ********************",
"************************** OOOOOOOO %%%%%%# ********************",
"************************** O@OOOO@O %%%%%#% ********************",
"*************************  @O@OO@O@O%%#%%%#  *******************",
"************************* OO@OOOO@OOOO%#%%%% *******************",
"************************  OOOO%OOOOOOO#%%%%% *******************",
"***********************  OOOOO%%OOOO@O%%%%#% *******************",
"*********************** OO@OOO%%OOO@O@%%%#%# *******************",
"*********************** O@O@OO%%%%OO@OOO%%#% *******************",
"*********************** OO@OO@O%%%OOOOOO%%%% *******************",
"*********************** OOOO@O@%%%OOO@OO#%%% *******************",
"*********************** OOOOO@O%%%OO@O@O%#%% *******************",
"*********************** OOOOOOOO  OOO@OO#%   *******************",
"***********************  OOOOOO   OOOOOOO .. *******************",
"************************ O      OOO@OOOO  .. *******************",
"******************        ... OOOO@O@OO o    *******************",
"***************    &&&&&& ... OOOOO@OO oo   ********************",
"************   &&&&&&&&&& ...         ooo **********************",
"**********   &&&&&&&&&       XXXXXXX oooo **********************",
"********   &&&&&&      ***  XXXXXXXX oooo **********************",
"*******  &&&&     ******** XXXXXXXXX oooo **********************",
"*******       ************ XXXXXXXXX oooo **********************",
"************************** XXXXXXXXX oooo **********************",
"************************** XXXXXXXX  oooo **********************",
"************************** XXXXXXXX ooooo **********************",
"************************** XXXXXXXX ooooo **********************",
"*************************  XXXXXXXX ooooo **********************",
"************************* XXXXXXXXX ooooo **********************",
"************************* XXXXXXXX oooooo **********************",
"************************  XXXXXXXX oooooo **********************",
"************************ XXXXXXXXX oooooo **********************",
"************************ XXXXXXXX  oooooo **********************",
"***********************  XXXXXXXX ooooooo **********************",
"*********************** XXXXXXXXX ooooooo **********************",
"*********************** XXXXXXXXX ooooooo **********************",
"*********************** XXXXXXXXX ooooooo **********************",
"*********************** XXXXXXX    oooooo **********************",
"*********************** XXXXXXX ** ooooo  **********************",
"*********************** XXXXXXX ** ooooo ***********************",
"***********************  XXXXX  ** oooo  ***********************",
"************************  XXX  ****     ************************",
"*************************     ******&&&&************************",
"**************************&&&*******&&&&&***********************",
"**************************+++*******+++++***********************",
"**************************+++*******+++++***********************",
"****************************************************************",
"****************************************************************"
};
